<svg width="384px" height="98px" version="1.1" xmlns="http://www.w3.org/2000/svg" xmlns:xlink="http://www.w3.org/1999/xlink" overflow="visible" id="l19nj5e9">
   <desc>Engraved by Verovio</desc>
   <defs>
      <g id="E050-l19nj5e9">
         <path transform="scale(1,-1)" d="M441 -245c-23 -4 -48 -6 -76 -6c-59 0 -102 7 -130 20c-88 42 -150 93 -187 154c-26 44 -43 103 -48 176c0 6 -1 13 -1 19c0 54 15 111 45 170c29 57 65 106 110 148s96 85 153 127c-3 16 -8 46 -13 92c-4 43 -5 73 -5 89c0 117 16 172 69 257c34 54 64 82 89 82 c21 0 43 -30 69 -92s39 -115 41 -159v-15c0 -109 -21 -162 -67 -241c-13 -20 -63 -90 -98 -118c-13 -9 -25 -19 -37 -29l31 -181c8 1 18 2 28 2c58 0 102 -12 133 -35c59 -43 92 -104 98 -184c1 -7 1 -15 1 -22c0 -123 -87 -209 -181 -248c8 -57 17 -110 25 -162 c5 -31 6 -58 6 -80c0 -30 -5 -53 -14 -70c-35 -64 -88 -99 -158 -103c-5 0 -11 -1 -16 -1c-37 0 -72 10 -108 27c-50 24 -77 59 -80 105v11c0 29 7 55 20 76c18 28 45 42 79 44h6c49 0 93 -42 97 -87v-9c0 -51 -34 -86 -105 -106c17 -24 51 -36 102 -36c62 0 116 43 140 85 c9 16 13 41 13 74c0 20 -1 42 -5 67c-8 53 -18 106 -26 159zM461 939c-95 0 -135 -175 -135 -286c0 -24 2 -48 5 -71c50 39 92 82 127 128c40 53 60 100 60 140v8c-4 53 -22 81 -55 81h-2zM406 119l54 -326c73 25 110 78 110 161c0 7 0 15 -1 23c-7 95 -57 142 -151 142h-12 zM382 117c-72 -2 -128 -47 -128 -120v-7c2 -46 43 -99 75 -115c-3 -2 -7 -5 -10 -10c-70 33 -116 88 -123 172v11c0 68 44 126 88 159c23 17 49 29 78 36l-29 170c-21 -13 -52 -37 -92 -73c-50 -44 -86 -84 -109 -119c-45 -69 -67 -130 -67 -182v-13c5 -68 35 -127 93 -176 s125 -73 203 -73c25 0 50 3 75 9c-19 111 -36 221 -54 331z" />
      </g>
      <g id="E0A4-l19nj5e9">
         <path transform="scale(1,-1)" d="M0 -39c0 68 73 172 200 172c66 0 114 -37 114 -95c0 -84 -106 -171 -218 -171c-64 0 -96 30 -96 94z" />
      </g>
      <g id="E240-l19nj5e9">
         <path transform="scale(1,-1)" d="M179 -646c15 29 29 55 46 102c18 49 30 108 30 138c0 105 -80 173 -168 200c-18 5 -47 9 -87 16v190h22c8 0 33 -61 71 -95c4 -3 -2 3 61 -56c62 -58 122 -137 122 -241c0 -38 -13 -106 -35 -163c-20 -51 -43 -99 -66 -132c-6 -5 -10 -7 -13 -7s-5 2 -5 5l4 10 c1 3 14 25 18 33z" />
      </g>
      <g id="E241-l19nj5e9">
         <path transform="scale(1,-1)" d="M179 646c-4 8 -17 30 -18 33l-4 10c0 3 2 5 5 5s7 -2 13 -7c23 -33 46 -81 66 -132c22 -57 35 -125 35 -163c0 -104 -60 -183 -122 -241c-63 -59 -57 -53 -61 -56c-38 -34 -63 -95 -71 -95h-22v190c40 7 69 11 87 16c88 27 168 95 168 200c0 30 -12 89 -30 138 c-17 47 -31 73 -46 102z" />
      </g>
   </defs>
   <style type="text/css">#l19nj5e9 g.ending, #l19nj5e9 g.fing, #l19nj5e9 g.reh, #l19nj5e9 g.tempo {font-weight:bold;}#l19nj5e9 g.dir, #l19nj5e9 g.dynam, #l19nj5e9 g.mNum {font-style:italic;}#l19nj5e9 g.label {font-weight:normal;}#l19nj5e9 ellipse, #l19nj5e9 path, #l19nj5e9 polygon, #l19nj5e9 polyline, #l19nj5e9 rect {stroke:currentColor}</style>
   <svg class="definition-scale" color="black" font-family="Times, serif" viewBox="0 0 10950 2800">
      <g class="page-margin" transform="translate(500, 500)">
         <g id="uhhiwd8" class="score pageMilestone">
            <title class="labelAttr">[selectionScore]</title>
         </g>
         <g id="a18ja7ym" class="system">
            <g id="k1d0qcvg" class="measure">
               <g id="o1awc8ol" class="mNum autogenerated">
                  <text y="297" text-anchor="middle" font-size="0px">
                     <tspan id="p1ufntge" class="text">
                        <tspan font-size="324px">3</tspan>
                     </tspan>
                  </text>
               </g>
               <g id="t3elz0m" class="staff">
                  <path d="M0 540 L3736 540" stroke-width="13" />
                  <path d="M0 720 L3736 720" stroke-width="13" />
                  <path d="M0 900 L3736 900" stroke-width="13" />
                  <path d="M0 1080 L3736 1080" stroke-width="13" />
                  <path d="M0 1260 L3736 1260" stroke-width="13" />
                  <g id="h1n5rxeb" class="clef">
                     <use xlink:href="#E050-l19nj5e9" transform="translate(90, 1080) scale(0.72, 0.72)" />
                  </g>
                  <g id="i1vljyrm" class="keySig" />
                  <g class="ledgerLines below">
                     <path d="M1227 1440 L1549 1440" stroke-width="22" />
                     <path d="M2669 1440 L2991 1440" stroke-width="22" />
                  </g>
                  <g id="u1bb0tuc" class="layer">
                     <g id="v6sh6uc" class="note">
                        <g class="notehead">
                           <use xlink:href="#E0A4-l19nj5e9" transform="translate(825, 990) scale(0.72, 0.72)" />
                        </g>
                        <g id="u19knp2v" class="stem">
                           <path d="M1042 962 L1042 360" stroke-width="18" />
                           <g id="v1gxitk" class="flag">
                              <use xlink:href="#E240-l19nj5e9" transform="translate(1033, 360) scale(0.72, 0.72)" />
                           </g>
                        </g>
                     </g>
                     <g id="wgj8qwy" class="note">
                        <g class="notehead">
                           <use xlink:href="#E0A4-l19nj5e9" transform="translate(1275, 1440) scale(0.72, 0.72)" />
                        </g>
                        <g id="w1905d68" class="stem">
                           <path d="M1492 1412 L1492 810" stroke-width="18" />
                           <g id="xz5i2aa" class="flag">
                              <use xlink:href="#E240-l19nj5e9" transform="translate(1483, 810) scale(0.72, 0.72)" />
                           </g>
                        </g>
                     </g>
                     <g id="xfggj11" class="note">
                        <g class="notehead">
                           <use xlink:href="#E0A4-l19nj5e9" transform="translate(1771, 1260) scale(0.72, 0.72)" />
                        </g>
                        <g id="y17jmr1w" class="stem">
                           <path d="M1988 1232 L1988 630" stroke-width="18" />
                           <g id="z11huxwv" class="flag">
                              <use xlink:href="#E240-l19nj5e9" transform="translate(1979, 630) scale(0.72, 0.72)" />
                           </g>
                        </g>
                     </g>
                     <g id="y1waypqj" class="note">
                        <g class="notehead">
                           <use xlink:href="#E0A4-l19nj5e9" transform="translate(2267, 990) scale(0.72, 0.72)" />
                        </g>
                        <g id="anr4k48" class="stem">
                           <path d="M2484 962 L2484 360" stroke-width="18" />
                           <g id="b1m8zn17" class="flag">
                              <use xlink:href="#E240-l19nj5e9" transform="translate(2475, 360) scale(0.72, 0.72)" />
                           </g>
                        </g>
                     </g>
                     <g id="zfx25hn" class="note">
                        <g class="notehead">
                           <use xlink:href="#E0A4-l19nj5e9" transform="translate(2717, 1440) scale(0.72, 0.72)" />
                        </g>
                        <g id="csdt8x1" class="stem">
                           <path d="M2934 1412 L2934 810" stroke-width="18" />
                           <g id="d10jcx5a" class="flag">
                              <use xlink:href="#E240-l19nj5e9" transform="translate(2925, 810) scale(0.72, 0.72)" />
                           </g>
                        </g>
                     </g>
                     <g id="a3ie8ud" class="note">
                        <g class="notehead">
                           <use xlink:href="#E0A4-l19nj5e9" transform="translate(3213, 1260) scale(0.72, 0.72)" />
                        </g>
                        <g id="ea7j3uy" class="stem">
                           <path d="M3430 1232 L3430 630" stroke-width="18" />
                           <g id="fuiaea7" class="flag">
                              <use xlink:href="#E240-l19nj5e9" transform="translate(3421, 630) scale(0.72, 0.72)" />
                           </g>
                        </g>
                     </g>
                  </g>
               </g>
               <g id="s82fpt" class="barLine">
                  <path d="M3723 540 L3723 1260" stroke-width="27" />
               </g>
            </g>
            <g id="b37hn12" class="measure">
               <g id="k1dict13" class="staff">
                  <path d="M3736 540 L6873 540" stroke-width="13" />
                  <path d="M3736 720 L6873 720" stroke-width="13" />
                  <path d="M3736 900 L6873 900" stroke-width="13" />
                  <path d="M3736 1080 L6873 1080" stroke-width="13" />
                  <path d="M3736 1260 L6873 1260" stroke-width="13" />
                  <g id="lcz237t" class="layer">
                     <g id="mwxt00x" class="note">
                        <g class="notehead">
                           <use xlink:href="#E0A4-l19nj5e9" transform="translate(3916, 1350) scale(0.72, 0.72)" />
                        </g>
                        <g id="gxzwqqc" class="stem">
                           <path d="M4133 1322 L4133 720" stroke-width="18" />
                           <g id="h3i55up" class="flag">
                              <use xlink:href="#E240-l19nj5e9" transform="translate(4124, 720) scale(0.72, 0.72)" />
                           </g>
                        </g>
                     </g>
                     <g id="ndvl5ld" class="note">
                        <g class="notehead">
                           <use xlink:href="#E0A4-l19nj5e9" transform="translate(4412, 1170) scale(0.72, 0.72)" />
                        </g>
                        <g id="i12zs17z" class="stem">
                           <path d="M4629 1142 L4629 540" stroke-width="18" />
                           <g id="j1rmtrje" class="flag">
                              <use xlink:href="#E240-l19nj5e9" transform="translate(4620, 540) scale(0.72, 0.72)" />
                           </g>
                        </g>
                     </g>
                     <g id="o1nwbnw5" class="note">
                        <g class="notehead">
                           <use xlink:href="#E0A4-l19nj5e9" transform="translate(4908, 990) scale(0.72, 0.72)" />
                        </g>
                        <g id="kjeoxmv" class="stem">
                           <path d="M5125 962 L5125 360" stroke-width="18" />
                           <g id="lke0vy6" class="flag">
                              <use xlink:href="#E240-l19nj5e9" transform="translate(5116, 360) scale(0.72, 0.72)" />
                           </g>
                        </g>
                     </g>
                     <g id="p1r78e3w" class="note">
                        <g class="notehead">
                           <use xlink:href="#E0A4-l19nj5e9" transform="translate(5358, 1350) scale(0.72, 0.72)" />
                        </g>
                        <g id="m1sctd0l" class="stem">
                           <path d="M5575 1322 L5575 720" stroke-width="18" />
                           <g id="n41nhpl" class="flag">
                              <use xlink:href="#E240-l19nj5e9" transform="translate(5566, 720) scale(0.72, 0.72)" />
                           </g>
                        </g>
                     </g>
                     <g id="qjepdrb" class="note">
                        <g class="notehead">
                           <use xlink:href="#E0A4-l19nj5e9" transform="translate(5854, 1170) scale(0.72, 0.72)" />
                        </g>
                        <g id="owlajgs" class="stem">
                           <path d="M6071 1142 L6071 540" stroke-width="18" />
                           <g id="p1pgsif9" class="flag">
                              <use xlink:href="#E240-l19nj5e9" transform="translate(6062, 540) scale(0.72, 0.72)" />
                           </g>
                        </g>
                     </g>
                     <g id="r1y47wy7" class="note">
                        <g class="notehead">
                           <use xlink:href="#E0A4-l19nj5e9" transform="translate(6350, 990) scale(0.72, 0.72)" />
                        </g>
                        <g id="q1m10xie" class="stem">
                           <path d="M6567 962 L6567 360" stroke-width="18" />
                           <g id="r1jp5f3v" class="flag">
                              <use xlink:href="#E240-l19nj5e9" transform="translate(6558, 360) scale(0.72, 0.72)" />
                           </g>
                        </g>
                     </g>
                  </g>
               </g>
               <g id="j14qhuvu" class="barLine">
                  <path d="M6860 540 L6860 1260" stroke-width="27" />
               </g>
            </g>
            <g id="sqqgytg" class="measure">
               <g id="b13viyd2" class="staff">
                  <path d="M6873 540 L9950 540" stroke-width="13" />
                  <path d="M6873 720 L9950 720" stroke-width="13" />
                  <path d="M6873 900 L9950 900" stroke-width="13" />
                  <path d="M6873 1080 L9950 1080" stroke-width="13" />
                  <path d="M6873 1260 L9950 1260" stroke-width="13" />
                  <g id="c1yevvwh" class="layer">
                     <g id="d1sqgsul" class="note">
                        <g class="notehead">
                           <use xlink:href="#E0A4-l19nj5e9" transform="translate(7053, 1260) scale(0.72, 0.72)" />
                        </g>
                        <g id="s82tfll" class="stem">
                           <path d="M7270 1232 L7270 630" stroke-width="18" />
                           <g id="t14q1aig" class="flag">
                              <use xlink:href="#E240-l19nj5e9" transform="translate(7261, 630) scale(0.72, 0.72)" />
                           </g>
                        </g>
                     </g>
                     <g id="e11rutd2" class="note">
                        <g class="notehead">
                           <use xlink:href="#E0A4-l19nj5e9" transform="translate(7549, 1080) scale(0.72, 0.72)" />
                        </g>
                        <g id="u1w3vevx" class="stem">
                           <path d="M7766 1052 L7766 450" stroke-width="18" />
                           <g id="v12wj9cg" class="flag">
                              <use xlink:href="#E240-l19nj5e9" transform="translate(7757, 450) scale(0.72, 0.72)" />
                           </g>
                        </g>
                     </g>
                     <g id="fwigvp2" class="note">
                        <g class="notehead">
                           <use xlink:href="#E0A4-l19nj5e9" transform="translate(8045, 900) scale(0.72, 0.72)" />
                        </g>
                        <g id="w164cdfr" class="stem">
                           <path d="M8054 928 L8054 1500" stroke-width="18" />
                           <g id="x1053kmm" class="flag">
                              <use xlink:href="#E241-l19nj5e9" transform="translate(8045, 1500) scale(0.72, 0.72)" />
                           </g>
                        </g>
                     </g>
                     <g id="g1ho95rp" class="note">
                        <g class="notehead">
                           <use xlink:href="#E0A4-l19nj5e9" transform="translate(8495, 1260) scale(0.72, 0.72)" />
                        </g>
                        <g id="yjaxy2q" class="stem">
                           <path d="M8712 1232 L8712 630" stroke-width="18" />
                           <g id="z18z7271" class="flag">
                              <use xlink:href="#E240-l19nj5e9" transform="translate(8703, 630) scale(0.72, 0.72)" />
                           </g>
                        </g>
                     </g>
                     <g id="h1wvbc8t" class="note">
                        <g class="notehead">
                           <use xlink:href="#E0A4-l19nj5e9" transform="translate(8991, 1080) scale(0.72, 0.72)" />
                        </g>
                        <g id="a85g2or" class="stem">
                           <path d="M9208 1052 L9208 450" stroke-width="18" />
                           <g id="bznfzok" class="flag">
                              <use xlink:href="#E240-l19nj5e9" transform="translate(9199, 450) scale(0.72, 0.72)" />
                           </g>
                        </g>
                     </g>
                     <g id="i4s4uc4" class="note">
                        <g class="notehead">
                           <use xlink:href="#E0A4-l19nj5e9" transform="translate(9487, 900) scale(0.72, 0.72)" />
                        </g>
                        <g id="cc8wdp9" class="stem">
                           <path d="M9496 928 L9496 1500" stroke-width="18" />
                           <g id="dxvimeh" class="flag">
                              <use xlink:href="#E241-l19nj5e9" transform="translate(9487, 1500) scale(0.72, 0.72)" />
                           </g>
                        </g>
                     </g>
                  </g>
               </g>
               <g id="a1n0fw13" class="barLine">
                  <path d="M9937 540 L9937 1260" stroke-width="27" />
               </g>
            </g>
         </g>
      </g>
   </svg>
</svg>
