<svg width="487px" height="102px" version="1.1" xmlns="http://www.w3.org/2000/svg" xmlns:xlink="http://www.w3.org/1999/xlink" overflow="visible" id="l19nj5e9">
   <desc>Engraved by Verovio</desc>
   <defs>
      <g id="E050-l19nj5e9">
         <path transform="scale(1,-1)" d="M441 -245c-23 -4 -48 -6 -76 -6c-59 0 -102 7 -130 20c-88 42 -150 93 -187 154c-26 44 -43 103 -48 176c0 6 -1 13 -1 19c0 54 15 111 45 170c29 57 65 106 110 148s96 85 153 127c-3 16 -8 46 -13 92c-4 43 -5 73 -5 89c0 117 16 172 69 257c34 54 64 82 89 82 c21 0 43 -30 69 -92s39 -115 41 -159v-15c0 -109 -21 -162 -67 -241c-13 -20 -63 -90 -98 -118c-13 -9 -25 -19 -37 -29l31 -181c8 1 18 2 28 2c58 0 102 -12 133 -35c59 -43 92 -104 98 -184c1 -7 1 -15 1 -22c0 -123 -87 -209 -181 -248c8 -57 17 -110 25 -162 c5 -31 6 -58 6 -80c0 -30 -5 -53 -14 -70c-35 -64 -88 -99 -158 -103c-5 0 -11 -1 -16 -1c-37 0 -72 10 -108 27c-50 24 -77 59 -80 105v11c0 29 7 55 20 76c18 28 45 42 79 44h6c49 0 93 -42 97 -87v-9c0 -51 -34 -86 -105 -106c17 -24 51 -36 102 -36c62 0 116 43 140 85 c9 16 13 41 13 74c0 20 -1 42 -5 67c-8 53 -18 106 -26 159zM461 939c-95 0 -135 -175 -135 -286c0 -24 2 -48 5 -71c50 39 92 82 127 128c40 53 60 100 60 140v8c-4 53 -22 81 -55 81h-2zM406 119l54 -326c73 25 110 78 110 161c0 7 0 15 -1 23c-7 95 -57 142 -151 142h-12 zM382 117c-72 -2 -128 -47 -128 -120v-7c2 -46 43 -99 75 -115c-3 -2 -7 -5 -10 -10c-70 33 -116 88 -123 172v11c0 68 44 126 88 159c23 17 49 29 78 36l-29 170c-21 -13 -52 -37 -92 -73c-50 -44 -86 -84 -109 -119c-45 -69 -67 -130 -67 -182v-13c5 -68 35 -127 93 -176 s125 -73 203 -73c25 0 50 3 75 9c-19 111 -36 221 -54 331z" />
      </g>
      <g id="E084-l19nj5e9">
         <path transform="scale(1,-1)" d="M20 -78c84 97 114 180 134 329h170c-13 -32 -82 -132 -99 -151l-84 -97c-33 -36 -59 -63 -80 -81h162v102l127 123v-225h57v-39h-57v-34c0 -43 19 -65 57 -65v-34h-244v36c48 0 60 26 60 70v27h-203v39z" />
      </g>
      <g id="E0A4-l19nj5e9">
         <path transform="scale(1,-1)" d="M0 -39c0 68 73 172 200 172c66 0 114 -37 114 -95c0 -84 -106 -171 -218 -171c-64 0 -96 30 -96 94z" />
      </g>
   </defs>
   <style type="text/css">#l19nj5e9 g.ending, #l19nj5e9 g.fing, #l19nj5e9 g.reh, #l19nj5e9 g.tempo {font-weight:bold;}#l19nj5e9 g.dir, #l19nj5e9 g.dynam, #l19nj5e9 g.mNum {font-style:italic;}#l19nj5e9 g.label {font-weight:normal;}#l19nj5e9 ellipse, #l19nj5e9 path, #l19nj5e9 polygon, #l19nj5e9 polyline, #l19nj5e9 rect {stroke:currentColor}</style>
   <svg class="definition-scale" color="black" font-family="Times, serif" viewBox="0 0 13910 2910">
      <g class="page-margin" transform="translate(500, 500)">
         <g id="moqsi69" class="mdiv pageMilestone" />
         <g id="njft1g2" class="score pageMilestone" />
         <g id="qjepdrb" class="system">
            <g id="b1bcu6sn" class="section systemMilestone" />
            <g id="c1k4iy3e" class="measure">
               <g id="lzosgrv" class="staff">
                  <path d="M0 656 L4056 656" stroke-width="13" />
                  <path d="M0 836 L4056 836" stroke-width="13" />
                  <path d="M0 1016 L4056 1016" stroke-width="13" />
                  <path d="M0 1196 L4056 1196" stroke-width="13" />
                  <path d="M0 1376 L4056 1376" stroke-width="13" />
                  <g id="i12zs17z" class="clef">
                     <use xlink:href="#E050-l19nj5e9" transform="translate(90, 1196) scale(0.72, 0.72)" />
                  </g>
                  <g id="j1rmtrje" class="keySig" />
                  <g id="kjeoxmv" class="meterSig">
                     <use xlink:href="#E084-l19nj5e9" transform="translate(721, 836) scale(0.72, 0.72)" />
                     <use xlink:href="#E084-l19nj5e9" transform="translate(721, 1196) scale(0.72, 0.72)" />
                  </g>
                  <g class="ledgerLines below">
                     <path d="M1235 1556 L1557 1556" stroke-width="22" />
                     <path d="M3305 1556 L3627 1556" stroke-width="22" />
                  </g>
                  <g id="m1q84ocf" class="layer">
                     <g id="n1gzuhvg" class="note">
                        <g class="notehead">
                           <use xlink:href="#E0A4-l19nj5e9" transform="translate(1283, 1556) scale(0.72, 0.72)" />
                        </g>
                        <g id="g1ho95rp" class="stem">
                           <path d="M1500 1528 L1500 926" stroke-width="18" />
                        </g>
                     </g>
                     <g id="o1vw1hrc" class="note">
                        <g class="notehead">
                           <use xlink:href="#E0A4-l19nj5e9" transform="translate(1973, 1376) scale(0.72, 0.72)" />
                        </g>
                        <g id="h1wvbc8t" class="stem">
                           <path d="M2190 1348 L2190 746" stroke-width="18" />
                        </g>
                     </g>
                     <g id="p36inxr" class="note">
                        <g class="notehead">
                           <use xlink:href="#E0A4-l19nj5e9" transform="translate(2663, 1196) scale(0.72, 0.72)" />
                        </g>
                        <g id="i4s4uc4" class="stem">
                           <path d="M2880 1168 L2880 566" stroke-width="18" />
                        </g>
                     </g>
                     <g id="qa56g6u" class="note">
                        <g class="notehead">
                           <use xlink:href="#E0A4-l19nj5e9" transform="translate(3353, 1556) scale(0.72, 0.72)" />
                        </g>
                        <g id="jo3qcsy" class="stem">
                           <path d="M3570 1528 L3570 926" stroke-width="18" />
                        </g>
                     </g>
                  </g>
               </g>
               <g id="k1ffvwuh" class="barLine">
                  <path d="M4043 656 L4043 1376" stroke-width="27" />
               </g>
            </g>
            <g id="r4ks4fv" class="ending systemMilestone">
               <g class="voltaBracket">
                  <text x="4116" y="334" font-size="0px">
                     <tspan id="y115m6re" class="text">
                        <tspan font-size="405px">1</tspan>
                     </tspan>
                  </text>
                  <path d="M4043 6 L6938 6" stroke-width="13" stroke-linecap="square" />
                  <path d="M4043 6 L4043 334" stroke-width="13" stroke-linecap="square" />
                  <path d="M6938 6 L6938 334" stroke-width="13" stroke-linecap="square" />
               </g>
            </g>
            <g id="s147azdb" class="measure">
               <g id="b8j2ung" class="staff">
                  <path d="M4056 656 L7009 656" stroke-width="13" />
                  <path d="M4056 836 L7009 836" stroke-width="13" />
                  <path d="M4056 1016 L7009 1016" stroke-width="13" />
                  <path d="M4056 1196 L7009 1196" stroke-width="13" />
                  <path d="M4056 1376 L7009 1376" stroke-width="13" />
                  <g id="c1ahluu1" class="layer">
                     <g id="d1iiegxs" class="note">
                        <g class="notehead">
                           <use xlink:href="#E0A4-l19nj5e9" transform="translate(4236, 1196) scale(0.72, 0.72)" />
                        </g>
                        <g id="kgtp1zt" class="stem">
                           <path d="M4453 1168 L4453 566" stroke-width="18" />
                        </g>
                     </g>
                     <g id="erbcoh7" class="note">
                        <g class="notehead">
                           <use xlink:href="#E0A4-l19nj5e9" transform="translate(4926, 1016) scale(0.72, 0.72)" />
                        </g>
                        <g id="l1wb3e2s" class="stem">
                           <path d="M4935 1044 L4935 1616" stroke-width="18" />
                        </g>
                     </g>
                     <g id="fmlv5y5" class="note">
                        <g class="notehead">
                           <use xlink:href="#E0A4-l19nj5e9" transform="translate(5616, 1466) scale(0.72, 0.72)" />
                        </g>
                        <g id="m1c77hfv" class="stem">
                           <path d="M5833 1438 L5833 836" stroke-width="18" />
                        </g>
                     </g>
                     <g id="g14xmp24" class="note">
                        <g class="notehead">
                           <use xlink:href="#E0A4-l19nj5e9" transform="translate(6306, 1196) scale(0.72, 0.72)" />
                        </g>
                        <g id="n1p91bt0" class="stem">
                           <path d="M6523 1168 L6523 566" stroke-width="18" />
                        </g>
                     </g>
                  </g>
               </g>
               <g id="a1pfogn4" class="barLine">
                  <path d="M6996 656 L6996 1376" stroke-width="27" />
               </g>
            </g>
            <g id="tmeaduc" class="systemMilestoneEnd r4ks4fv" />
            <g id="hju2rxn" class="ending systemMilestone">
               <g class="voltaBracket">
                  <text x="7069" y="334" font-size="0px">
                     <tspan id="znyoh2x" class="text">
                        <tspan font-size="405px">2</tspan>
                     </tspan>
                  </text>
                  <path d="M6996 6 L9891 6" stroke-width="13" stroke-linecap="square" />
                  <path d="M6996 6 L6996 334" stroke-width="13" stroke-linecap="square" />
                  <path d="M9891 6 L9891 334" stroke-width="13" stroke-linecap="square" />
               </g>
            </g>
            <g id="izodm98" class="measure">
               <g id="rgx8bjh" class="staff">
                  <path d="M7009 656 L9962 656" stroke-width="13" />
                  <path d="M7009 836 L9962 836" stroke-width="13" />
                  <path d="M7009 1016 L9962 1016" stroke-width="13" />
                  <path d="M7009 1196 L9962 1196" stroke-width="13" />
                  <path d="M7009 1376 L9962 1376" stroke-width="13" />
                  <g class="ledgerLines below">
                     <path d="M8521 1556 L8843 1556" stroke-width="22" />
                  </g>
                  <g id="s82fpt" class="layer">
                     <g id="t3elz0m" class="note">
                        <g class="notehead">
                           <use xlink:href="#E0A4-l19nj5e9" transform="translate(7189, 1286) scale(0.72, 0.72)" />
                        </g>
                        <g id="o1hn97h8" class="stem">
                           <path d="M7406 1258 L7406 656" stroke-width="18" />
                        </g>
                     </g>
                     <g id="u1bb0tuc" class="note">
                        <g class="notehead">
                           <use xlink:href="#E0A4-l19nj5e9" transform="translate(7879, 1106) scale(0.72, 0.72)" />
                        </g>
                        <g id="pmwmthe" class="stem">
                           <path d="M8096 1078 L8096 476" stroke-width="18" />
                        </g>
                     </g>
                     <g id="v6sh6uc" class="note">
                        <g class="notehead">
                           <use xlink:href="#E0A4-l19nj5e9" transform="translate(8569, 1556) scale(0.72, 0.72)" />
                        </g>
                        <g id="q14fmeoc" class="stem">
                           <path d="M8786 1528 L8786 926" stroke-width="18" />
                        </g>
                     </g>
                     <g id="wgj8qwy" class="note">
                        <g class="notehead">
                           <use xlink:href="#E0A4-l19nj5e9" transform="translate(9259, 1286) scale(0.72, 0.72)" />
                        </g>
                        <g id="rivwb27" class="stem">
                           <path d="M9476 1258 L9476 656" stroke-width="18" />
                        </g>
                     </g>
                  </g>
               </g>
               <g id="qhghzyb" class="barLine">
                  <path d="M9949 656 L9949 1376" stroke-width="27" />
               </g>
            </g>
            <g id="u4oqxce" class="systemMilestoneEnd hju2rxn" />
            <g id="xfggj11" class="measure">
               <g id="gjwwkjn" class="staff">
                  <path d="M9962 656 L12915 656" stroke-width="13" />
                  <path d="M9962 836 L12915 836" stroke-width="13" />
                  <path d="M9962 1016 L12915 1016" stroke-width="13" />
                  <path d="M9962 1196 L12915 1196" stroke-width="13" />
                  <path d="M9962 1376 L12915 1376" stroke-width="13" />
                  <g class="ledgerLines below">
                     <path d="M10094 1556 L10416 1556" stroke-width="22" />
                     <path d="M12164 1556 L12486 1556" stroke-width="22" />
                  </g>
                  <g id="hzub3xf" class="layer">
                     <g id="izv1mc9" class="note">
                        <g class="notehead">
                           <use xlink:href="#E0A4-l19nj5e9" transform="translate(10142, 1556) scale(0.72, 0.72)" />
                        </g>
                        <g id="s1f31sgl" class="stem">
                           <path d="M10359 1528 L10359 926" stroke-width="18" />
                        </g>
                     </g>
                     <g id="j14qhuvu" class="note">
                        <g class="notehead">
                           <use xlink:href="#E0A4-l19nj5e9" transform="translate(10832, 1376) scale(0.72, 0.72)" />
                        </g>
                        <g id="t1ajik95" class="stem">
                           <path d="M11049 1348 L11049 746" stroke-width="18" />
                        </g>
                     </g>
                     <g id="k1dict13" class="note">
                        <g class="notehead">
                           <use xlink:href="#E0A4-l19nj5e9" transform="translate(11522, 1196) scale(0.72, 0.72)" />
                        </g>
                        <g id="u6oscn4" class="stem">
                           <path d="M11739 1168 L11739 566" stroke-width="18" />
                        </g>
                     </g>
                     <g id="lcz237t" class="note">
                        <g class="notehead">
                           <use xlink:href="#E0A4-l19nj5e9" transform="translate(12212, 1556) scale(0.72, 0.72)" />
                        </g>
                        <g id="vyt4ad" class="stem">
                           <path d="M12429 1528 L12429 926" stroke-width="18" />
                        </g>
                     </g>
                  </g>
               </g>
               <g id="f12ecyql" class="barLine">
                  <path d="M12902 656 L12902 1376" stroke-width="27" />
               </g>
            </g>
            <g id="v1bpmbr1" class="systemMilestoneEnd b1bcu6sn" />
         </g>
         <g id="w1m11mph" class="pageMilestoneEnd njft1g2" />
         <g id="x1oxd4nf" class="pageMilestoneEnd moqsi69" />
      </g>
   </svg>
</svg>
